<svg width="417" height="417" viewBox="0 0 417 417" fill="none" xmlns="http://www.w3.org/2000/svg">
<path d="M174.371 319.749C174.371 341.489 158.292 359.033 138.552 359.033C118.811 359.033 102.732 341.489 102.732 319.749C102.732 298.009 118.811 280.465 138.552 280.465C158.292 280.465 174.371 298.009 174.371 319.749Z" stroke="black"/>
<path d="M376.145 25.0495C376.145 38.6516 366.089 49.5989 353.777 49.5989C341.466 49.5989 331.41 38.6516 331.41 25.0495C331.41 11.4473 341.466 0.5 353.777 0.5C366.089 0.5 376.145 11.4473 376.145 25.0495Z" stroke="black"/>
<path d="M96.3405 347.475C96.8537 347.036 97.5876 346.469 98.5291 345.784C100.67 344.228 103.838 342.097 107.803 339.542C115.731 334.433 126.819 327.644 139.188 320.385C151.557 313.126 162.859 306.775 171.133 302.375C175.272 300.174 178.646 298.465 181.015 297.375C182.057 296.895 182.895 296.54 183.513 296.316C183 296.755 182.266 297.322 181.324 298.007C179.183 299.564 176.015 301.694 172.05 304.249C164.123 309.358 153.035 316.147 140.666 323.406C128.297 330.666 116.994 337.017 108.72 341.416C104.582 343.617 101.207 345.326 98.8382 346.416C97.7963 346.896 96.9588 347.251 96.3405 347.475Z" stroke="black"/>
<path d="M20.1774 182.784L24.2345 194.638L24.3502 194.976H24.7075H37.7618L27.2234 202.245L26.9116 202.46L27.0342 202.819L31.0735 214.621L20.4613 207.301L20.1774 207.105L19.8935 207.301L9.28134 214.621L13.3206 202.819L13.4433 202.46L13.1314 202.245L2.59308 194.976H15.6473H16.0047L16.1204 194.638L20.1774 182.784Z" stroke="black"/>
<path d="M396.823 123.844L400.88 135.698L400.995 136.036H401.353L414.407 136.036L403.869 143.305L403.557 143.52L403.679 143.879L407.719 155.681L397.106 148.361L396.823 148.165L396.539 148.361L385.926 155.681L389.966 143.879L390.088 143.52L389.777 143.305L379.238 136.036L392.292 136.036H392.65L392.766 135.698L396.823 123.844Z" stroke="black"/>
<path d="M48.4258 256.539L49.7621 260.669L49.8741 261.015H50.2378H54.568L51.0631 263.572L50.7706 263.786L50.882 264.13L52.2197 268.264L48.7205 265.711L48.4258 265.496L48.1311 265.711L44.6319 268.264L45.9696 264.13L46.081 263.786L45.7885 263.572L42.2836 261.015H46.6138H46.9775L47.0895 260.669L48.4258 256.539Z" stroke="black"/>
<path d="M223.297 300.744L224.633 304.874L224.745 305.22H225.109H229.439L225.934 307.777L225.642 307.99L225.753 308.335L227.091 312.469L223.591 309.916L223.297 309.701L223.002 309.916L219.503 312.469L220.841 308.335L220.952 307.99L220.66 307.777L217.155 305.22H221.485H221.848L221.96 304.874L223.297 300.744Z" stroke="black"/>
<path d="M236.748 374.419L238.085 378.549L238.197 378.895H238.56H242.891L239.386 381.452L239.093 381.665L239.205 382.01L240.542 386.144L237.043 383.591L236.748 383.376L236.454 383.591L232.954 386.144L234.292 382.01L234.404 381.665L234.111 381.452L230.606 378.895H234.936H235.3L235.412 378.549L236.748 374.419Z" stroke="black"/>
<path d="M330.91 138.659L332.246 142.789L332.358 143.135H332.722H337.052L333.547 145.692L333.254 145.906L333.366 146.25L334.704 150.384L331.204 147.831L330.91 147.616L330.615 147.831L327.116 150.384L328.453 146.25L328.565 145.906L328.272 145.692L324.767 143.135H329.098H329.461L329.573 142.789L330.91 138.659Z" stroke="#FF0E0E"/>
<path d="M88.7806 94.4544L90.117 98.5841L90.2289 98.9302H90.5927H94.9228L91.4179 101.487L91.1254 101.701L91.2369 102.045L92.5745 106.179L89.0753 103.626L88.7806 103.411L88.4859 103.626L84.9867 106.179L86.3244 102.045L86.4359 101.701L86.1434 101.487L82.6384 98.9302H86.9686H87.3323L87.4443 98.5841L88.7806 94.4544Z" stroke="black"/>
<path d="M113.839 407.422C113.839 409.224 112.515 410.606 110.976 410.606C109.437 410.606 108.113 409.224 108.113 407.422C108.113 405.62 109.437 404.239 110.976 404.239C112.515 404.239 113.839 405.62 113.839 407.422Z" stroke="black"/>
<path d="M159.574 410.369C159.574 413.799 157.046 416.5 154.021 416.5C150.996 416.5 148.468 413.799 148.468 410.369C148.468 406.939 150.996 404.239 154.021 404.239C157.046 404.239 159.574 406.939 159.574 410.369Z" stroke="#FF0E0E"/>
<path d="M105.768 204.079C105.768 207.509 103.24 210.21 100.214 210.21C97.1894 210.21 94.6613 207.509 94.6613 204.079C94.6613 200.65 97.1894 197.949 100.214 197.949C103.24 197.949 105.768 200.65 105.768 204.079Z" fill="white" stroke="black"/>
<path d="M388.252 204.079C388.252 207.509 385.723 210.21 382.698 210.21C379.673 210.21 377.145 207.509 377.145 204.079C377.145 200.65 379.673 197.949 382.698 197.949C385.723 197.949 388.252 200.65 388.252 204.079Z" fill="white" stroke="black"/>
<path d="M361.348 248.285C361.348 251.714 358.82 254.415 355.795 254.415C352.77 254.415 350.242 251.714 350.242 248.285C350.242 244.855 352.77 242.154 355.795 242.154C358.82 242.154 361.348 244.855 361.348 248.285Z" fill="white" stroke="black"/>
<path d="M320.994 71.4647C320.994 74.8945 318.465 77.5955 315.44 77.5955C312.415 77.5955 309.887 74.8945 309.887 71.4647C309.887 68.035 312.415 65.334 315.44 65.334C318.465 65.334 320.994 68.035 320.994 71.4647Z" fill="white" stroke="#FF0E0E"/>
<path d="M325.074 72.0577C325.074 72.0577 325.073 72.0595 325.069 72.0631C325.072 72.0594 325.074 72.0577 325.074 72.0577ZM324.573 72.1003C324.676 72.1358 324.761 72.1697 324.832 72.2013C324.761 72.2329 324.676 72.2668 324.573 72.3022C324.106 72.4634 323.403 72.6168 322.502 72.7485C320.707 73.0106 318.21 73.1748 315.44 73.1748C312.671 73.1748 310.174 73.0106 308.379 72.7485C307.477 72.6168 306.774 72.4634 306.308 72.3022C306.205 72.2668 306.12 72.2329 306.049 72.2013C306.12 72.1697 306.205 72.1358 306.308 72.1003C306.774 71.9391 307.477 71.7858 308.379 71.6541C310.174 71.3919 312.671 71.2278 315.44 71.2278C318.21 71.2278 320.707 71.3919 322.502 71.6541C323.403 71.7858 324.106 71.9391 324.573 72.1003ZM305.807 72.0577C305.807 72.0577 305.809 72.0595 305.812 72.0631C305.808 72.0595 305.806 72.0577 305.807 72.0577ZM305.807 72.3449C305.806 72.3449 305.808 72.3431 305.812 72.3395C305.809 72.3431 305.807 72.3449 305.807 72.3449ZM325.069 72.3395C325.073 72.3431 325.074 72.3449 325.074 72.3449C325.074 72.3449 325.072 72.3431 325.069 72.3395Z" fill="white" stroke="black"/>
<rect x="0.654276" y="0.181626" width="48.1475" height="100.388" rx="7.5" transform="matrix(0.850642 -0.525746 0.45791 0.888999 248.544 239.303)" fill="#AAC3D0" stroke="black"/>
<rect x="0.654276" y="0.181626" width="48.1475" height="100.388" rx="7.5" transform="matrix(0.850641 -0.525746 0.45791 0.888999 164.124 74.8287)" fill="#AAC3D0" stroke="black"/>
<path d="M230.695 151.034L220.093 130.405M220.093 130.405L199.756 141.456L219.261 130.036M220.093 130.405L207.109 105.355M240.784 117.88L219.261 130.036M219.261 130.036L207.109 105.355M207.109 105.355L194.507 81.0425M226.66 94.304L207.491 106.46M188.323 118.617L207.491 106.46M207.491 106.46L194.507 81.0425M194.507 81.0425L184.96 62.6238L195.385 82.1476M215.226 69.9913L195.385 82.1476M175.544 94.304L195.385 82.1476" stroke="black"/>
<path d="M316.786 313.855L306.856 294.7M306.856 294.7L285.174 309.435L306.024 294.331M306.856 294.7L293.872 269.65M325.529 282.912L306.024 294.331M306.024 294.331L293.872 269.65M293.872 269.65L281.27 245.337M313.423 258.599L294.254 270.755M273.068 284.385L294.254 270.755M294.254 270.755L281.27 245.337M281.27 245.337L271.723 226.919L282.148 246.443M301.989 234.286L282.148 246.443M259.616 261.546L282.148 246.443" stroke="black"/>
<path d="M281.793 143.102L291.237 137.265C294.76 135.088 299.154 136.307 301.051 139.99L314.36 165.828C316.257 169.51 314.938 174.261 311.415 176.439L301.97 182.275L281.793 143.102Z" fill="#C4C4C4" stroke="black"/>
<rect x="-0.187676" y="0.710128" width="68.8405" height="79.2235" rx="4.5" transform="matrix(0.468396 0.883518 -0.843749 0.536738 275.499 131.177)" fill="white" stroke="black"/>
<mask id="path-24-inside-1_223_317" fill="white">
<path d="M154.992 180.832C164.698 174.817 176.799 174.453 188.632 179.822C200.465 185.191 211.061 195.852 218.09 209.46C225.119 223.068 228.004 238.509 226.111 252.385C224.218 266.261 217.702 277.435 207.996 283.451L181.494 232.141L154.992 180.832Z"/>
</mask>
<path d="M154.992 180.832C164.698 174.817 176.799 174.453 188.632 179.822C200.465 185.191 211.061 195.852 218.09 209.46C225.119 223.068 228.004 238.509 226.111 252.385C224.218 266.261 217.702 277.435 207.996 283.451L181.494 232.141L154.992 180.832Z" fill="#C4C4C4" stroke="black" stroke-width="2" mask="url(#path-24-inside-1_223_317)"/>
<path d="M133.171 267.203C136.461 267.203 139.052 264.297 139.052 260.809C139.052 257.322 136.461 254.415 133.171 254.415C129.881 254.415 127.29 257.322 127.29 260.809C127.29 264.297 129.881 267.203 133.171 267.203Z" fill="#FF0E0E" stroke="black"/>
<rect x="0.654785" y="0.179332" width="7.24966" height="49.2209" rx="3.62483" transform="matrix(0.848734 -0.528821 0.460837 0.887485 203.933 188.135)" fill="#FF0E0E" stroke="black"/>
<rect x="0.654785" y="0.179332" width="7.24967" height="20.9021" rx="3.62484" transform="matrix(0.848734 -0.528821 0.460837 0.887485 131.842 247.856)" fill="#C4C4C4" stroke="black"/>
<rect x="0.654785" y="0.179332" width="7.24967" height="118.044" rx="3.62483" transform="matrix(0.848734 -0.528821 0.460837 0.887485 147.025 182.161)" fill="#C4C4C4" stroke="black"/>
<path d="M297.542 175.572L290.627 179.834C289.452 180.558 287.988 180.15 287.357 178.921L276.299 157.391C275.669 156.163 276.11 154.58 277.286 153.855L284.2 149.594L297.542 175.572Z" fill="#C4C4C4" stroke="black"/>
<path d="M250.873 201.896C258.141 201.896 263.806 195.485 263.806 187.871C263.806 180.257 258.141 173.846 250.873 173.846C243.604 173.846 237.939 180.257 237.939 187.871C237.939 195.485 243.604 201.896 250.873 201.896Z" fill="#C4C4C4" stroke="#FF0E0E" stroke-width="3"/>
<ellipse cx="232.713" cy="165.032" rx="1.34515" ry="1.47349" fill="black"/>
<ellipse cx="239.439" cy="160.611" rx="1.34515" ry="1.4735" fill="black"/>
<ellipse cx="235.403" cy="169.452" rx="1.34517" ry="1.4735" fill="black"/>
<ellipse cx="242.129" cy="165.032" rx="1.34515" ry="1.47349" fill="black"/>
<ellipse cx="258.271" cy="207.763" rx="1.34518" ry="1.4735" fill="black"/>
<ellipse cx="264.997" cy="203.343" rx="1.34517" ry="1.4735" fill="black"/>
<ellipse cx="260.961" cy="212.184" rx="1.34515" ry="1.47349" fill="black"/>
<ellipse cx="267.687" cy="207.763" rx="1.34517" ry="1.4735" fill="black"/>
<path d="M161.419 209.237L141.915 248.285L144.605 254.178L173.526 236.497" stroke="black"/>
<path d="M145.277 254.178L147.295 259.336L185.632 261.546" stroke="black"/>
<path d="M234.058 157.664L242.129 173.873" stroke="black"/>
<path d="M238.094 147.35L240.784 153.244" stroke="black"/>
<path d="M223.297 154.717L227.332 162.085" stroke="black"/>
<path d="M274.413 213.657L278.448 221.025" stroke="black"/>
<path d="M260.961 221.025L264.997 229.866" stroke="black"/>
<path d="M259.616 201.869L268.36 218.078" stroke="black"/>
</svg>
