<svg width="533" height="417" viewBox="0 0 533 417" fill="none" xmlns="http://www.w3.org/2000/svg">
<path d="M293.5 257.528L210.118 374.53V376.794L212.38 383.586L215.019 386.604L220.673 388.113L225.573 385.472L302.093 272.276H304.732V382.831L305.863 385.472L309.255 388.113L311.894 390H315.287L319.81 386.604L323.202 383.586V272.276H326.218L397.838 378.68L402.738 385.472L406.131 388.113H412.162L415.931 386.604L417.816 383.586V378.68L415.931 373.021L334 257.184L335.642 245.864H337.903L343.935 242.468L346.573 236.808L345.442 231.148L339.411 226.621L340.165 221.715V212.66L342.05 209.264L345.442 200.586L346.573 191.153L348.835 185.87L351.097 179.833H354.866H369.944L375.975 171.909L439.5 195L446 190L489 209L487 213.5L487.551 221.715L492.452 228.13L498.86 229.262L506.399 228.13L510.922 225.489L516.953 212.66L526 187.757V178.324L522.984 172.664L516.953 169.268H510.922L502 175.5L498.483 174.173L459.657 158.703L457.396 153.043L395.576 123.612V112.67L392.184 107.388L335.642 81.3526L333.757 72.2969L328.857 68.1464L224.819 24L218.788 30.4144H212.38H209.741L196.171 31.5464L191.271 32.6784L184.863 36.0742L176.193 43.9979L168.654 55.3175L164.508 65.8825L163 79.466L164.508 88.5216L166.769 93.0495L182.5 107.388V118H184.863L280.984 163.608L289.654 167.381H295.308L298.324 165.495L303.224 157.194L305.109 158.703L315.664 163.608L321.695 167.381L319.81 174.173L318.302 179.833L314.156 182.852L308.502 189.643L307.371 195.68V199.454V202.095L308.502 204.736V207.755V211.528V227.375H289.654H285.131L280.984 230.394L279.477 234.167V237.94L280.984 241L283.5 244L286.5 245L291.539 246.619L293.5 248.095V257.528ZM293.5 257.528L293.047 257.184L301 263.221L306.24 260.957L315 265.5L321.318 260.957L326.218 261.5L328.103 256.052H329.988H332.5" stroke="#FF0E0E"/>
<path d="M293.5 257.528L210.118 374.53V376.794L212.38 383.586L215.019 386.604L220.673 388.113L225.573 385.472L302.093 272.276H304.732V382.831L305.863 385.472L309.255 388.113L311.894 390H315.287L319.81 386.604L323.202 383.586V272.276H326.218L397.838 378.68L402.738 385.472L406.131 388.113H412.162L415.931 386.604L417.816 383.586V378.68L415.931 373.021L334 257.184L335.642 245.864H337.903L343.935 242.468L346.573 236.808L345.442 231.148L339.411 226.621L340.165 221.715V212.66L342.05 209.264L345.442 200.586L346.573 191.153L348.835 185.87L351.097 179.833H354.866H369.944L375.975 171.909L439.5 195L446 190L489 209L487 213.5L487.551 221.715L492.452 228.13L498.86 229.262L506.399 228.13L510.922 225.489L516.953 212.66L526 187.757V178.324L522.984 172.664L516.953 169.268H510.922L502 175.5L498.483 174.173L459.657 158.703L457.396 153.043L395.576 123.612V112.67L392.184 107.388L335.642 81.3526L333.757 72.2969L328.857 68.1464L224.819 24L218.788 30.4144H212.38H209.741L196.171 31.5464L191.271 32.6784L184.863 36.0742L176.193 43.9979L168.654 55.3175L164.508 65.8825L163 79.466L164.508 88.5216L166.769 93.0495L182.5 107.388V118H184.863L280.984 163.608L289.654 167.381H295.308L298.324 165.495L303.224 157.194L305.109 158.703L315.664 163.608L321.695 167.381L319.81 174.173L318.302 179.833L314.156 182.852L308.502 189.643L307.371 195.68V199.454V202.095L308.502 204.736V207.755V211.528V227.375H289.654H285.131L280.984 230.394L279.477 234.167V237.94L280.984 241L283.5 244L286.5 245L291.539 246.619L293.5 248.095V257.528ZM293.5 257.528L293.047 257.184L301 263.221L306.24 260.957L315 265.5L321.318 260.957L326.218 261.5L328.103 256.052H329.988H332.5" stroke="black" stroke-opacity="0.2"/>
<path d="M303 156L335 82" stroke="#FF0E0E" stroke-width="3"/>
<path d="M182 105L187.589 99.3939L194.11 83.697L216 38.8485V31" stroke="#FF0E0E"/>
<path d="M379 173L387.25 151.131L397 127" stroke="#FF0E0E" stroke-width="3"/>
<path d="M460 159L447.5 190.5" stroke="#FF0E0E" stroke-width="3"/>
<path d="M291 245H337" stroke="#FF0E0E" stroke-width="3"/>
<path d="M343.5 197.5C343.5 207.45 335.29 215.5 326.12 215.5C316.977 215.5 309.5 207.478 309.5 197.5C309.5 187.522 316.977 179.5 326.12 179.5C335.29 179.5 343.5 187.55 343.5 197.5Z" fill="#ED9C61" stroke="black"/>
<circle cx="113" cy="187" r="26.5" stroke="black"/>
<path d="M82.6097 205.286C82.8273 205.136 83.0673 204.973 83.3294 204.799C84.9184 203.744 87.2715 202.3 90.2184 200.566C96.1099 197.1 104.351 192.493 113.546 187.567C122.74 182.641 131.141 178.332 137.29 175.347C140.366 173.854 142.872 172.695 144.63 171.956C144.92 171.834 145.189 171.725 145.435 171.627C145.217 171.778 144.977 171.94 144.715 172.114C143.126 173.169 140.773 174.614 137.826 176.347C131.935 179.813 123.693 184.42 114.499 189.346C105.305 194.272 96.9035 198.581 90.7544 201.567C87.6786 203.06 85.1723 204.218 83.414 204.957C83.124 205.079 82.8557 205.189 82.6097 205.286Z" stroke="black"/>
<circle cx="327" cy="198" r="4" fill="black"/>
<path d="M289.833 247.036C289.862 249.713 290.505 252.357 291.728 254.817C292.95 257.277 294.727 259.505 296.957 261.375C299.187 263.244 301.826 264.717 304.724 265.711C307.622 266.704 310.722 267.198 313.847 267.165C316.972 267.131 320.061 266.571 322.937 265.516C325.813 264.46 328.42 262.931 330.609 261.014C332.799 259.098 334.527 256.832 335.697 254.346C336.866 251.861 337.453 249.203 337.425 246.527L313.629 246.781L289.833 247.036Z" fill="black"/>
<rect x="279.5" y="225.5" width="67" height="21" rx="10.5" fill="#ED9C61" stroke="black"/>
<rect x="176.717" y="119.33" width="111.752" height="129.964" rx="15" transform="rotate(-65.0357 176.717 119.33)" fill="#AAC3D0"/>
<rect x="177.382" y="119.088" width="110.752" height="128.964" rx="14.5" transform="rotate(-65.0357 177.382 119.088)" stroke="black" stroke-opacity="0.98"/>
<rect x="374.493" y="174.445" width="58.6493" height="72.0653" rx="14.5" transform="rotate(-68.2053 374.493 174.445)" fill="#AAC3D0" stroke="black"/>
<rect x="482.106" y="226.082" width="66.6815" height="26.738" rx="13.369" transform="rotate(-68.2053 482.106 226.082)" fill="#AAC3D0" stroke="black"/>
<path d="M214 36.0621C214 42.7041 182.192 65 180.345 65C178.498 65 177 59.6157 177 52.9738C177 46.3318 178.498 40.9475 180.345 40.9475C182.192 40.9475 214 29.4202 214 36.0621Z" fill="#C4C4C4" fill-opacity="0.28"/>
<path d="M343.71 82.5578C343.71 91.4732 387.417 120.165 385.172 120.165C382.927 120.165 416.553 140.043 343.71 120.165C343.71 29.0165 328.988 104.023 331.233 104.023C333.478 104.023 343.71 73.6423 343.71 82.5578Z" fill="#C4C4C4" fill-opacity="0.28"/>
<path d="M476.414 164.659C476.414 167.796 501.91 177.892 500.6 177.892C499.291 177.892 518.906 184.886 476.414 177.891C476.414 145.821 467.826 172.212 469.136 172.212C470.445 172.212 476.414 161.522 476.414 164.659Z" fill="#C4C4C4" fill-opacity="0.28"/>
<ellipse cx="328" cy="396" rx="198" ry="21" fill="#DEDEDE"/>
<path d="M25 104.424L27.8995 112.158L28.0212 112.483H28.3677H37.5334L30.1827 117.111L29.8379 117.328L29.9809 117.71L32.8278 125.304L25.2664 120.542L25 120.375L24.7336 120.542L17.1722 125.304L20.0191 117.71L20.1621 117.328L19.8174 117.111L12.4666 112.483H21.6323H21.9788L22.1005 112.158L25 104.424Z" stroke="black"/>
<path d="M405 64.4243L407.9 72.1583L408.021 72.4828H408.368H417.533L410.183 77.1113L409.838 77.3284L409.981 77.71L412.828 85.3036L405.266 80.5424L405 80.3747L404.734 80.5424L397.172 85.3036L400.019 77.71L400.162 77.3284L399.817 77.1113L392.467 72.4828H401.632H401.979L402.1 72.1583L405 64.4243Z" stroke="black"/>
<path d="M176 164.497L176.876 166.967L176.994 167.3H177.347H180.054L177.902 168.733L177.578 168.949L177.708 169.316L178.554 171.701L176.277 170.185L176 170L175.723 170.185L173.446 171.701L174.292 169.316L174.422 168.949L174.098 168.733L171.946 167.3H174.653H175.006L175.124 166.967L176 164.497Z" stroke="black"/>
<path d="M226 164.497L226.876 166.967L226.994 167.3H227.347H230.054L227.902 168.733L227.578 168.949L227.708 169.316L228.554 171.701L226.277 170.185L226 170L225.723 170.185L223.446 171.701L224.292 169.316L224.422 168.949L224.098 168.733L221.946 167.3H224.653H225.006L225.124 166.967L226 164.497Z" stroke="black"/>
<path d="M46 154.497L46.8758 156.967L46.9938 157.3H47.3471H50.0536L47.9025 158.733L47.5782 158.949L47.7084 159.316L48.5536 161.701L46.2772 160.185L46 160L45.7228 160.185L43.4464 161.701L44.2916 159.316L44.4218 158.949L44.0975 158.733L41.9464 157.3H44.6529H45.0062L45.1242 156.967L46 154.497Z" stroke="black"/>
<path d="M186 244.497L186.876 246.967L186.994 247.3H187.347H190.054L187.902 248.733L187.578 248.949L187.708 249.316L188.554 251.701L186.277 250.185L186 250L185.723 250.185L183.446 251.701L184.292 249.316L184.422 248.949L184.098 248.733L181.946 247.3H184.653H185.006L185.124 246.967L186 244.497Z" stroke="black"/>
<path d="M76 44.4966L76.8758 46.9675L76.9938 47.3004H77.3471H80.0536L77.9025 48.733L77.5782 48.949L77.7084 49.3162L78.5536 51.7007L76.2772 50.1847L76 50.0001L75.7228 50.1847L73.4464 51.7007L74.2916 49.3162L74.4218 48.949L74.0975 48.733L71.9464 47.3004H74.6529H75.0062L75.1242 46.9675L76 44.4966Z" stroke="black"/>
<path d="M6 14.4966L6.87581 16.9675L6.99383 17.3004H7.34708H10.0536L7.90247 18.733L7.57819 18.949L7.70836 19.3162L8.55356 21.7007L6.27716 20.1847L6 20.0001L5.72284 20.1847L3.44644 21.7007L4.29164 19.3162L4.42181 18.949L4.09753 18.733L1.94643 17.3004H4.65292H5.00617L5.12419 16.9675L6 14.4966Z" stroke="black"/>
<path d="M173.5 204.411L173.818 205.25L173.941 205.573H174.286H175.08L174.507 205.93L174.158 206.147L174.304 206.531L174.565 207.22L173.764 206.721L173.5 206.557L173.236 206.721L172.435 207.22L172.696 206.531L172.842 206.147L172.493 205.93L171.92 205.573H172.714H173.059L173.182 205.25L173.5 204.411Z" stroke="black"/>
<path d="M183.5 144.411L183.818 145.25L183.941 145.573H184.286H185.08L184.507 145.93L184.158 146.147L184.304 146.531L184.565 147.22L183.764 146.721L183.5 146.557L183.236 146.721L182.435 147.22L182.696 146.531L182.842 146.147L182.493 145.93L181.92 145.573H182.714H183.059L183.182 145.25L183.5 144.411Z" stroke="black"/>
<circle cx="92.5" cy="256.5" r="2" stroke="black"/>
<circle cx="124.5" cy="258.5" r="4" stroke="black"/>
<circle cx="423" cy="27" r="26.5" stroke="#FF0E0E"/>
<path d="M496 84.4966L496.876 86.9675L496.994 87.3004H497.347H500.054L497.902 88.733L497.578 88.949L497.708 89.3162L498.554 91.7007L496.277 90.1847L496 90.0001L495.723 90.1847L493.446 91.7007L494.292 89.3162L494.422 88.949L494.098 88.733L491.946 87.3004H494.653H495.006L495.124 86.9675L496 84.4966Z" stroke="black"/>
<path d="M483.5 44.4106L483.818 45.2502L483.941 45.5729H484.286H485.08L484.507 45.9297L484.158 46.147L484.304 46.5313L484.565 47.2201L483.764 46.7215L483.5 46.5569L483.236 46.7215L482.435 47.2201L482.696 46.5313L482.842 46.147L482.493 45.9297L481.92 45.5729H482.714H483.059L483.182 45.2502L483.5 44.4106Z" stroke="black"/>
<circle cx="434.5" cy="98.5" r="4" stroke="black"/>
<circle cx="214.5" cy="208.5" r="4" fill="white" stroke="black"/>
<circle cx="84.5" cy="118.5" r="4" fill="white" stroke="black"/>
<path d="M293.434 247.542V247.946C293.434 248.013 293.427 248.064 293.414 248.1C293.394 248.154 293.355 248.201 293.296 248.24L293.252 248.205C293.287 248.171 293.312 248.14 293.325 248.112C293.345 248.071 293.355 248.015 293.355 247.946V247.604H293.274V247.542H293.434ZM293.337 247.361C293.337 247.345 293.342 247.331 293.353 247.319C293.365 247.308 293.378 247.302 293.394 247.302C293.41 247.302 293.424 247.308 293.435 247.319C293.446 247.331 293.452 247.345 293.452 247.361C293.452 247.377 293.446 247.391 293.435 247.403C293.424 247.414 293.41 247.42 293.394 247.42C293.378 247.42 293.365 247.414 293.353 247.403C293.342 247.391 293.337 247.377 293.337 247.361ZM293.769 247.596C293.723 247.596 293.69 247.609 293.667 247.637C293.652 247.656 293.641 247.682 293.636 247.717H293.873C293.87 247.681 293.86 247.652 293.841 247.629C293.823 247.607 293.799 247.596 293.769 247.596ZM293.934 247.973C293.899 247.997 293.851 248.009 293.791 248.009C293.715 248.009 293.657 247.987 293.616 247.944C293.575 247.901 293.554 247.843 293.554 247.771C293.554 247.677 293.585 247.609 293.646 247.567C293.679 247.545 293.717 247.533 293.759 247.533C293.823 247.533 293.872 247.555 293.905 247.599C293.933 247.636 293.948 247.685 293.95 247.746L293.939 247.775H293.633C293.634 247.829 293.648 247.871 293.676 247.901C293.705 247.931 293.742 247.946 293.79 247.946C293.825 247.946 293.867 247.936 293.913 247.917L293.934 247.973ZM294.18 247.946C294.236 247.946 294.265 247.922 294.265 247.873C294.265 247.844 294.238 247.82 294.184 247.803L294.136 247.786C294.102 247.774 294.077 247.757 294.06 247.735C294.044 247.712 294.036 247.686 294.036 247.656C294.036 247.625 294.05 247.597 294.078 247.572C294.106 247.546 294.143 247.533 294.187 247.533C294.216 247.533 294.242 247.537 294.265 247.545C294.288 247.552 294.305 247.561 294.318 247.571L294.29 247.629C294.28 247.621 294.266 247.614 294.247 247.606C294.228 247.599 294.208 247.596 294.187 247.596C294.166 247.596 294.148 247.602 294.135 247.615C294.121 247.627 294.114 247.642 294.114 247.657C294.114 247.673 294.119 247.686 294.13 247.696C294.14 247.707 294.161 247.717 294.193 247.729L294.241 247.745C294.275 247.757 294.301 247.773 294.318 247.792C294.335 247.812 294.343 247.841 294.343 247.878C294.343 247.916 294.329 247.947 294.3 247.972C294.272 247.996 294.232 248.009 294.183 248.009C294.157 248.009 294.131 248.006 294.107 248C294.083 247.995 294.056 247.984 294.026 247.967L294.054 247.906C294.079 247.921 294.1 247.932 294.118 247.938C294.136 247.943 294.156 247.946 294.18 247.946ZM294.415 247.542H294.506L294.621 247.711L294.74 247.543H294.824L294.66 247.769L294.817 248H294.726L294.611 247.832L294.492 248H294.408L294.572 247.774L294.415 247.542ZM295.248 247.542H295.327L295.124 248H295.072L294.868 247.542H294.952L295.1 247.87L295.248 247.542ZM295.428 248V247.542H295.506V247.626C295.518 247.601 295.535 247.579 295.556 247.561C295.578 247.542 295.603 247.533 295.63 247.533C295.658 247.533 295.68 247.538 295.698 247.548C295.716 247.557 295.728 247.567 295.733 247.578L295.7 247.628C295.696 247.622 295.691 247.617 295.687 247.613C295.675 247.602 295.657 247.596 295.634 247.596C295.61 247.596 295.589 247.603 295.57 247.618C295.552 247.633 295.537 247.652 295.525 247.674C295.514 247.696 295.508 247.717 295.506 247.739V248H295.428Z" fill="white" fill-opacity="0.2"/>
</svg>
